<svg width="1401.0719" height="999.31296" xmlns="http://www.w3.org/2000/svg">
 <title>windy_day</title>
 <defs>
  <filter id="svg_30_blur" x="-50%" y="-50%" width="200%" height="200%">
   <feGaussianBlur stdDeviation="0"/>
  </filter>
  <filter height="200%" width="200%" y="-50%" x="-50%" id="svg_102_blur">
   <feGaussianBlur stdDeviation="1.7"/>
  </filter>
 </defs>
 <g>
  <title>background</title>
  <rect x="-1" y="-1" width="1403.0719" height="1001.31296" id="canvas_background" fill="none"/>
 </g>
 <g>
  <title>Layer 1</title>
  <ellipse stroke="null" ry="85.000632" rx="94.000695" id="svg_68" cy="911.565798" cx="1313.54053" fill-opacity="null" stroke-opacity="null" stroke-width="null" fill="#da4453"/>
  <ellipse ry="110.000815" rx="110.000815" id="svg_67" cy="838.565256" cx="935.537717" fill-opacity="null" stroke-opacity="null" stroke-width="null" stroke="null" fill="#da4453"/>
  <ellipse ry="101.000748" rx="101.000748" id="svg_66" cy="187.560429" cx="778.536566" stroke-width="null" stroke="null" fill="#da4453"/>
  <ellipse fill="#d0cde1" stroke-width="0" cx="596.785327" cy="707.040542" id="svg_29" rx="192.50117" ry="183.751117" opacity="0.32"/>
  <ellipse fill="#da4453" stroke-width="null" stroke-opacity="null" cx="1218.523726" cy="429.199184" id="svg_41" rx="572.003751" ry="519.003409" stroke="null"/>
  <path stroke="null" d="m1423.59554,866.000562c-74.092518,15.88992 -171.05254,12.88593 -275.095015,0.11736c-85.101546,-10.444 -181.074301,-36.56578 -258.968544,-66.97625a51.381161,49.84184 0 0 1 29.910659,-14.38193c0.317853,-0.04657 0.64588,-0.09186 0.972619,-0.12727a72.688175,70.51052 0 0 1 17.290184,0.00314c72.743163,7.9208 59.392914,46.54491 157.522578,3.22688c61.027866,-26.93988 126.673948,-30.73072 170.016574,-21.58156c0.798935,0.16851 1.586964,0.34073 2.374322,0.51787c25.071329,5.67379 42.218065,15.7803 45.925083,28.22844c10.118921,33.95513 -35.172529,54.56739 42.56603,56.05531c21.569889,0.41259 45.73539,9.75249 67.485509,14.91801z" fill="#3f3d56" id="svg_1"/>
  <path d="m1639.60716,897.48336c-29.43259,-2.30091 -58.80327,-6.66753 -88.07337,-10.34362q-61.89865,-7.77401 -123.73242,-16.02303c-81.7182,-10.81574 -163.3869,-21.97637 -245.07926,-32.97223q-123.39554,-16.60915 -246.85975,-32.73761q-114.4446,-14.95662 -228.98035,-29.26023c-57.31515,-7.07214 -114.66781,-13.9093 -172.1661,-19.44806q-6.62365,-0.63806 -13.24853,-1.26396c-1.9585,-0.18567 -1.94518,2.77473 0,2.95919c53.54606,5.07616 106.96896,11.14816 160.35041,17.6405c76.1808,9.26522 152.29115,19.07574 228.38487,28.98472q123.46907,16.07826 246.87014,32.64141c81.34588,10.9142 162.66188,22.03591 244.01908,32.87128c75.46881,10.05114 150.95954,20.48502 226.66693,28.73484c3.94448,0.42982 7.89139,0.86665 11.84837,1.17598c1.96302,0.15347 1.9526,-2.80654 0,-2.95919l-0.00001,0l-0.00001,0.00001z" fill="#3f3d56" id="svg_2" stroke="null"/>
  <path d="m1001.36546,488.00827s-14.23111,65.98063 5.175,64.68689s10.3499,-60.80568 10.3499,-60.80568l-15.5249,-3.88121z" fill="#a0616a" id="svg_3"/>
  <polygon points="1078.9902954101562,802.3864440917969 1088.0463256835938,850.2544250488281 1108.7462768554688,847.6673889160156 1102.2772827148438,795.9173889160156 1078.9902954101562,802.3864440917969 " fill="#a0616a" id="svg_4"/>
  <polygon points="1183.7833862304688,755.8113708496094 1188.9583129882812,790.7424621582031 1216.1262817382812,790.7424621582031 1210.9513549804688,758.3994445800781 1183.7833862304688,755.8113708496094 " fill="#a0616a" id="svg_5"/>
  <path d="m1058.28993,455.66482s-21.99354,42.69335 -14.23111,148.77986s7.76243,206.99806 7.76243,206.99806l55.63073,-3.88121l15.52484,-263.92249l60.80568,228.9916l40.10587,-3.88121l-10.34989,-223.81669l-32.34345,-107.38025l-122.9051,18.11233z" fill="#2f2e41" id="svg_6"/>
  <path d="m1095.80833,828.26133s3.88121,-11.64364 -2.58748,-11.64364l-14.23111,0s-15.52486,28.46224 -24.581,31.04971s-37.5184,27.1685 -10.34991,29.756s68.56811,-11.64364 68.56811,-16.81859s-3.88121,-27.1685 -3.88121,-27.1685l-12.9374,-5.17498z" fill="#2f2e41" id="svg_7"/>
  <path d="m1209.65726,782.98051s-23.78268,-6.57829 -22.24124,-2.64228s-3.63351,15.57966 -3.63351,15.57966s-12.93738,73.74305 25.87475,67.27437s10.34991,-62.09942 10.34991,-62.09942l-5.7468,-22.0098l-4.60311,3.89747z" fill="#2f2e41" id="svg_8"/>
  <circle cx="1100.983284" cy="137.405299" r="38.812141" fill="#a0616a" id="svg_9"/>
  <path d="m1075.10852,158.10511s6.46869,37.5184 2.58748,45.28082s31.04971,23.28729 31.04971,23.28729l18.11233,-43.98709l0,-24.581l-51.74952,-0.00002z" fill="#a0616a" id="svg_10"/>
  <path d="m1095.80833,202.0922s-11.777,1.73217 -16.88528,-6.89634s-16.7519,59.93959 -16.7519,59.93959s5.17495,90.56165 -1.29374,111.26146s-5.17495,28.46223 -2.58748,32.34345s10.3499,-1.29374 3.88122,9.05616s-6.46869,3.88121 -6.46869,14.23112s-2.58748,47.8683 -2.58748,47.8683l139.72369,-10.3499l-65.98063,-283.3286s-21.99354,27.16849 -31.04971,25.87476z" fill="#3f3d56" id="svg_11"/>
  <path d="m1149.92311,190.89297s53.04325,7.76242 55.63073,19.40606s54.337,335.07812 27.1685,351.89671s-115.14268,29.756 -119.02389,12.93738s-24.581,-359.65913 12.93738,-398.47127l23.28728,14.23112z" fill="#d0cde1" id="svg_12"/>
  <path d="m1224.86209,531.24404l-10.86335,0s3.34257,-39.27518 0,-42.8963c0,0 -30.36167,-3.34257 -61.00188,30.08312c0,0 5.2924,-36.48971 44.84613,-38.43954c12.67948,-0.62394 20.00807,4.41776 24.10827,11.55972c8.69626,15.13629 2.91083,39.693 2.91083,39.693z" fill="#3f3d56" id="svg_13"/>
  <path d="m1224.86209,531.24404l-10.86335,0s3.34257,-39.27518 0,-42.8963l7.95252,3.2033c8.69626,15.13629 2.91083,39.693 2.91083,39.693z" opacity="0.15" id="svg_14"/>
  <path d="m1161.07473,505.61772l-15.04156,25.62632l6.96365,0s1.11423,-18.94118 8.07791,-25.62632z" fill="#3f3d56" id="svg_15"/>
  <path d="m1161.07473,505.61772l-15.04156,25.62632l6.96365,0s1.11423,-18.94118 8.07791,-25.62632z" opacity="0.15" id="svg_16"/>
  <path d="m1288.79544,641.41722a26.60237,26.60237 0 0 1 -10.44553,22.42307s-138.43806,32.86859 -153.75817,30.08312a21.81634,21.81634 0 0 1 -5.44,-1.78271c-12.21153,-5.79378 -19.90779,-21.61527 -19.90779,-21.61527s-0.23118,-4.08908 -0.57381,-10.75194c-0.65737,-12.88559 -1.72142,-35.40058 -2.30915,-56.59526c-0.57938,-20.94119 -0.69358,-40.58992 0.51531,-48.38925c3.064,-19.77687 24.23362,-21.44815 24.23362,-21.44815l140.945,-6.128a49.43575,49.43575 0 0 1 13.70453,1.79384c15.23655,4.57654 13.036,16.31174 13.036,16.31174s-0.55711,81.05723 -0.00001,96.09881z" fill="#575a89" id="svg_17"/>
  <path d="m1276.44907,527.18843c-8.63776,2.69076 -29.40346,8.62382 -36.824,6.00548c-9.47061,-3.34256 -82.72858,-1.11418 -109.46913,1.94984s-17.26991,75.48629 -17.26991,75.48629l-15.83541,-9.27c-0.57938,-20.94119 -0.69358,-40.58992 0.51531,-48.38925c3.064,-19.77687 24.23362,-21.44815 24.23362,-21.44815l140.945,-6.128a49.43575,49.43575 0 0 1 13.70452,1.79379z" fill="#3f3d56" id="svg_18"/>
  <path d="m1175.28065,579.15424s-13.41577,-74.98968 11.25843,-85.26572l3.226,0.03021s-7.79926,10.30625 -4.73526,29.24748s1.39274,62.11607 1.39274,62.11607s-9.47062,5.57095 -11.14191,-6.12804z" fill="#2f2e41" id="svg_19"/>
  <path d="m1185.02982,496.42566s14.763,-23.67653 41.78211,-10.5848s29.526,42.8963 29.526,42.8963s-18.66266,-54.59529 -71.30811,-32.3115z" fill="#2f2e41" id="svg_20"/>
  <polygon points="1258.2882690429688,582.2184143066406 1253.8313598632812,553.5274353027344 1256.0603637695312,526.6644592285156 1261.6303100585938,554.3634338378906 1264.1372680664062,582.2184143066406 1258.2882690429688,582.2184143066406 " fill="#2f2e41" id="svg_21"/>
  <polygon points="1208.1493530273438,578.8753967285156 1223.7483520507812,574.9754333496094 1239.6253051757812,576.9253845214844 1239.6253051757812,583.8894348144531 1225.1412963867188,588.3464660644531 1208.1493530273438,586.6744689941406 1208.1493530273438,578.8753967285156 " fill="#2f2e41" id="svg_22"/>
  <path d="m1117.34282,679.70985a43.50066,43.50066 0 0 0 2.49858,10.61265c-12.21153,-5.79378 -19.90779,-21.61527 -19.90779,-21.61527s-0.23118,-4.08908 -0.57381,-10.75194l10.18369,4.20607l7.79933,17.54849z" fill="#3f3d56" id="svg_23"/>
  <path d="m1124.02793,695.02996a3.93159,3.93159 0 0 1 -1.88576,-1.05292c2.08911,0.84122 2.96931,1.28134 1.88576,1.05292z" fill="#2f2e41" id="svg_24"/>
  <path d="m1078.91434,192.38916l-50.38038,49.80888l18.11233,161.71724s-36.22466,191.4732 -15.52485,191.4732s18.11233,2.58748 21.99354,-11.64364s25.79936,-391.35568 25.79936,-391.35568z" fill="#d0cde1" id="svg_25"/>
  <path d="m1041.47134,238.31686l-12.93738,3.88118s-11.64364,9.05617 -10.3499,28.46223s-1.29374,75.0368 -1.29374,75.0368s-7.76243,11.64364 -3.88121,25.87476l-18.11229,124.19887l40.10587,6.46869l14.23112,-64.6869l-7.76247,-199.23563z" fill="#d0cde1" id="svg_26"/>
  <path d="m1201.89482,444.02118s-15.52486,81.50549 0,76.33054s34.93092,-62.09942 21.99354,-71.15559s-21.99354,-5.17495 -21.99354,-5.17495z" fill="#a0616a" id="svg_27"/>
  <path d="m1062.07923,141.95678s-3.96239,-5.94359 -2.4384,-12.34438a37.41312,37.41312 0 0 0 1.0668,-11.12519s3.2004,-10.36319 6.40079,-16.15438s1.6764,-8.22959 11.73479,-10.05839s5.94359,-14.93518 32.46116,-0.762a7.77672,7.77672 0 0 0 8.07718,3.048c5.4864,-1.0668 7.46759,6.55319 7.46759,6.55319s3.6576,-2.13359 5.0292,0.9144s11.15142,-1.82935 11.15142,18.74463s-11.12909,38.95183 -11.12909,38.95183s0.81587,-34.60789 -17.31971,-38.11308s-37.64275,-13.716 -42.36714,-0.6096a99.91322,99.91322 0 0 1 -10.13459,20.95497z" fill="#2f2e41" id="svg_28"/>
  <path d="m826.92824,842.90904c-10.19123,-2.79856 -48.18483,0.98008 -48.18483,0.98008a62.6801,62.6801 0 0 0 6.10749,9.62637l7.53015,-4.71007l-5.13059,7.56381a30.536,30.536 0 0 0 4.57275,4.14941l11.58926,-7.249l-6.63356,9.77955c0.07,0.02054 0.13958,0.04286 0.2097,0.06212c10.19118,2.79854 25.155,0.54481 33.42261,-5.03391s6.7082,-12.36979 -3.48298,-15.16836z" fill="#3f3d56" id="svg_32"/>
  <path d="m854.92824,826.90904c-10.19123,-2.79856 -48.18483,0.98008 -48.18483,0.98008a62.6801,62.6801 0 0 0 6.10749,9.62637l7.53015,-4.71007l-5.13059,7.56381a30.536,30.536 0 0 0 4.57275,4.14941l11.58926,-7.249l-6.63356,9.77955c0.07,0.02054 0.13958,0.04286 0.2097,0.06212c10.19118,2.79854 25.155,0.54481 33.42261,-5.03391s6.7082,-12.36979 -3.48298,-15.16836z" fill="#3f3d56" id="svg_33"/>
  <path d="m1152.92824,889.90904c-10.19123,-2.79856 -48.18483,0.98008 -48.18483,0.98008a62.6801,62.6801 0 0 0 6.10749,9.62637l7.53015,-4.71007l-5.13059,7.56381a30.536,30.536 0 0 0 4.57275,4.14941l11.58926,-7.249l-6.63356,9.77955c0.06995,0.02054 0.13958,0.04286 0.2097,0.06212c10.19118,2.79854 25.155,0.54481 33.42261,-5.03391s6.7082,-12.36979 -3.48298,-15.16836z" fill="#3f3d56" id="svg_34"/>
  <path d="m854.92824,867.90904c-10.19123,-2.79856 -48.18483,0.98008 -48.18483,0.98008a62.6801,62.6801 0 0 0 6.10749,9.62637l7.53015,-4.71007l-5.13059,7.56381a30.536,30.536 0 0 0 4.57275,4.14941l11.58926,-7.249l-6.63356,9.77955c0.07,0.02054 0.13958,0.04286 0.2097,0.06212c10.19118,2.79854 25.155,0.54481 33.42261,-5.03391s6.7082,-12.36979 -3.48298,-15.16836z" fill="#3f3d56" id="svg_35"/>
  <path d="m1183.78251,202.0922s29.756,-5.17495 36.22466,33.63718s23.28728,115.14266 23.28728,115.14266l-4.61973,116.46808l-43.24857,-14.26277l1.29374,-89.26792l-21.99355,-133.255l9.05617,-28.46223z" fill="#d0cde1" id="svg_38"/>
  <polygon points="1172.7863159179688,254.48858642578125 1189.6043090820312,364.4564208984375 1185.7233276367188,457.6054382324219 1203.8363647460938,367.0434265136719 1172.7863159179688,254.48858642578125 " opacity="0.15" id="svg_39"/>
  <path stroke="null" fill="#da4453" stroke-width="null" stroke-opacity="null" d="m1204.83334,621.54977l9.40708,0l0,-8.13548l9.64988,0l0,8.13548l9.40708,0l0,8.34545l-9.40708,0l0,8.13547l-9.64988,0l0,-8.13547l-9.40708,0l0,-8.34545z" id="svg_47" transform="rotate(1 1219.065429687496,625.7225341796884) "/>
  <ellipse ry="8.424763" rx="8.637915" id="svg_40" cy="618.126958" cx="935.675526" stroke-width="null" fill="#2f2e41"/>
  <ellipse fill="#2f2e41" stroke-width="null" cx="881.29579" cy="574.398471" id="svg_111" rx="14.500087" ry="14.500091"/>
  <ellipse ry="10.070411" rx="9.779542" id="svg_42" cy="555.739556" cx="944.9007" stroke-width="null" fill="#2f2e41"/>
  <ellipse fill="#3f3d56" stroke-width="null" cx="915.036424" cy="582.562802" id="svg_48" rx="37.999882" ry="41.000529"/>
  <ellipse transform="rotate(-4.306965351104736 892.4670410156272,610.1505126953139) " ry="13.406883" rx="14.472293" id="svg_43" cy="610.150479" cx="892.467083" stroke-width="null" fill="#2f2e41"/>
  <ellipse stroke="null" ry="86.000376" rx="88.000381" id="svg_64" cy="575.563337" cx="700.99957" stroke-width="null" fill="#da4453"/>
  <ellipse fill="#2f2e41" stroke-width="null" cx="639.217634" cy="281.155437" id="svg_104" rx="26.000104" ry="24.500098"/>
  <ellipse fill="#2f2e41" stroke-width="null" cx="759.309178" cy="425.201631" id="svg_107" rx="18.000082" ry="17.000057"/>
  <ellipse ry="18" rx="19.5" id="svg_36" cy="295" cx="801.69698" stroke-width="null" fill="#2f2e41"/>
  <ellipse ry="18" rx="19.5" id="svg_31" cy="248.848451" cx="766.878792" stroke-width="null" fill="#2f2e41"/>
  <ellipse fill="#3f3d56" stroke-width="null" cx="715.869583" cy="335.561935" id="svg_51" rx="99.000507" ry="102.000514" stroke="null"/>
  <text filter="url(#svg_102_blur)" fill="#2f2e41" stroke-width="null" x="760.489414" y="194.768777" id="svg_102" font-size="26" font-family="Arvo, sans-serif" text-anchor="start" xml:space="preserve" font-weight="bold" transform="matrix(0.7875061975062116,0,0,0.9946546533204634,80.81766290771611,158.2284694699871) ">nCOV 19</text>
  <ellipse fill="#2f2e41" stroke-width="null" cx="703.089107" cy="241.890003" id="svg_103" rx="26.916766" ry="25.583443"/>
  <ellipse transform="rotate(7.534778594970703 626.1542358398439,353.50759887695267) " fill="#2f2e41" stroke-width="null" cx="626.154229" cy="353.507601" id="svg_105" rx="29.391198" ry="29.322672"/>
  <ellipse fill="#2f2e41" stroke-width="null" cx="684.687588" cy="430.853136" id="svg_106" rx="19.500085" ry="19.000096"/>
  <ellipse fill="#2f2e41" stroke-width="null" cx="803.051953" cy="372.534456" id="svg_108" rx="19.000113" ry="19.197061"/>
  <ellipse fill="#2f2e41" stroke-width="null" cx="953.601088" cy="588.320599" id="svg_109" rx="8.545519" ry="9.227332"/>
  <ellipse fill="#2f2e41" stroke-width="null" cx="906.726919" cy="543.29472" id="svg_110" rx="12.000096" ry="11.50012"/>
  <ellipse fill="#3f3d56" stroke="null" stroke-width="null" stroke-opacity="null" fill-opacity="null" cx="1448.039975" cy="635.657204" id="svg_112" rx="1.000005"/>
  <ellipse fill="#d0cde1" stroke-width="0" cx="260.001591" cy="311.638169" id="svg_30" rx="85.000517" ry="84.150512" opacity="0.35" filter="url(#svg_30_blur)"/>
  <path fill="#3f3d56" stroke="null" stroke-width="null" stroke-opacity="null" fill-opacity="null" d="m1131.35974,292.10313l15.55551,-29.99993l15.55552,29.99993l-31.11103,0z" id="svg_37"/>
  <ellipse ry="8.749978" rx="10.624973" id="svg_59" cy="573.748563" cx="914.28542" fill-opacity="null" stroke-opacity="null" stroke-width="null" stroke="null" fill="#3f3d56"/>
  <path id="svg_62" d="m938.246888,798.853257c0,0 -1.255505,-1.804896 0.502191,-2.58963c1.757696,-0.78471 7.53295,-7.886554 12.0527,-8.004268c0,0 0.251096,-7.062582 3.515366,-5.885493c3.264297,1.177113 1.757696,2.118775 1.757696,2.118775c0,0 5.524158,-6.120896 7.030759,0.706258c0,0 1.506574,1.765658 7.281828,-3.295864c5.775254,-5.061521 25.597796,-6.264525 35.153742,3.06046c6.151885,6.003207 14.689218,14.949161 8.035116,23.071142c0,0 3.851889,17.841003 -28.333189,15.161815c0,0 -12.470246,-2.21374 -18.873226,-1.978312c-6.403006,0.235403 -11.676069,2.236488 -8.537333,-0.470855c3.13871,-2.707319 11.550508,-2.707319 22.84992,-0.706258c11.299412,2.001085 29.378462,1.647944 29.378462,-10.35847c0,0 -2.762079,0.941686 -4.017558,0.235428c0,0 0.627726,2.589605 -3.013175,2.354202c-3.640927,-0.235428 -7.030759,-1.294803 -10.797221,0.235403c0,0 -1.129944,0.706283 -1.5066,0c0,0 -1.883231,0 -1.255479,-0.706258c0,0 -1.067163,-0.411986 0,-1.177089c1.067163,-0.765103 8.537333,-0.647414 8.286237,-0.706258c-0.251096,-0.058845 0.125535,-0.765103 -0.502191,-0.706258c-0.627752,0.058845 -19.209019,1.118244 -24.105425,-0.235428c0,0 -0.251096,1.589099 -1.255479,0.941686c0,0 -9.290646,0.882817 -11.299412,1.883347c-2.008792,1.000555 -1.318285,0.235428 -2.008792,0.470855c-0.690533,0.235403 -1.44382,1.353647 -2.259888,0.706258c0,0 -2.762079,0.647389 -2.008792,-0.470855c0,0 -0.878822,0.294297 -1.255479,-0.470831c0,0 -1.192724,-0.353117 0.502191,-1.647944c1.694916,-1.294803 8.537333,-1.235934 9.039525,-1.883347c0.502218,-0.647414 0.313876,-1.118244 -1.255479,-0.941686c-1.569355,0.176558 -4.770871,-0.353117 -7.281854,-1.883347c-2.510983,-1.53023 -1.698408,-2.291144 -7.030733,-2.825057c-4.310507,-0.431593 -5.189355,-1.020137 -6.277445,-1.412516c-1.088116,-0.392355 -2.510983,-2.589605 -2.510983,-2.589605z" stroke-width="null" fill="#2f2e41"/>
  <ellipse ry="22.000163" rx="6.000044" id="svg_70" cy="86.559685" cx="927.537661" opacity="0.5" fill-opacity="null" stroke-opacity="null" stroke-width="null" stroke="null" fill="#da4453"/>
  <path id="svg_74" d="m1756.71211,484.879926l0,0c0,-0.411452 0.333548,-0.745 0.745,-0.745l0,0c0.197586,0 0.38708,0.078491 0.526794,0.218205c0.139715,0.139715 0.218205,0.329208 0.218205,0.526795l0,0c0,0.411452 -0.333548,0.745 -0.745,0.745l0,0c-0.411452,0 -0.745,-0.333548 -0.745,-0.745zm0.745,-0.745l0,1.49m-0.745,-0.745l1.49,0" stroke-width="null" fill="#3f3d56"/>
 </g>
</svg>